<svg xmlns="http://www.w3.org/2000/svg" width="640" height="405" fill="none"><g fill="#2A8086" clip-path="url(#a)"><path d="m-115.489-321-20.007 555.559-4.173 26.334c-3.849 24.285 14.919 46.261 39.507 46.261h624.708c8.025 0 15.865 2.414 22.501 6.929l91.555 62.293c5.242 3.567 11.256 5.836 17.548 6.621l479.44 59.836c25.37 3.167 47.16-17.954 44.78-43.41l-62.9-673.643L-115.489-321Z"/><path d="m-115.5-296-20 555.536-5.343 74.916c-2.239 31.408 31.008 52.969 58.771 38.113l66.7292-35.706c5.80537-3.106 12.28775-4.732 18.87193-4.732H524.286c8.027 0 15.869 2.416 22.506 6.933l91.346 62.172c5.348 3.64 11.499 5.928 17.925 6.669l480.967 55.453c25.24 2.91 46.76-18.14 44.41-43.437L1117-273.646-115.5-296Z" opacity=".3"/></g><defs><clipPath id="a"><path fill="#fff" d="M0 0h640v405H0z"/></clipPath></defs></svg>