<svg xmlns="http://www.w3.org/2000/svg" width="320" height="531" fill="none"><g fill="#2A8086" clip-path="url(#a)"><path d="m-115.489-83-20.007 522.37-3.642 21.61c-4.113 24.403 14.697 46.648 39.4436 46.648H525.163c7.64 0 15.12 2.188 21.556 6.305l92.105 58.924c5.102 3.264 10.879 5.327 16.895 6.033l479.901 56.316c25.37 2.976 46.99-18.263 44.47-43.68l-62.62-630.5411L-115.489-83Z"/><path d="m-115.5-59-20 522.131-5.147 67.832c-2.354 31.026 30.06 52.742 57.8575 38.762l67.8095-34.103c5.57593-2.804 11.73066-4.264 17.97199-4.264H524.907c7.64 0 15.119 2.187 21.555 6.304l91.908 58.793c5.202 3.328 11.105 5.406 17.245 6.071l481.425 52.169c25.24 2.735 46.61-18.436 44.12-43.703L1117-37.9903-115.5-59Z" opacity=".3"/></g><defs><clipPath id="a"><path fill="#fff" d="M0 0h320v531H0z"/></clipPath></defs></svg>