<svg xmlns="http://www.w3.org/2000/svg" width="1200" height="898" fill="none"><g fill="#2A8086" clip-path="url(#a)"><path d="m-31.4885-56-20.0076 588.027-7.6267 113.159c-1.5567 23.097 16.7594 42.69 39.9095 42.69H87.2724c4.9307 0 9.8188-.912 14.4176-2.689l190.552-73.634c4.599-1.777 9.487-2.689 14.418-2.689h301.299c8.39 0 16.567 2.638 23.375 7.541l91.08 65.592c5.359 3.859 11.59 6.331 18.137 7.196l478.979 63.272c25.38 3.353 47.33-17.668 45.09-43.17L1201.47-6.48656-31.4885-56Z"/><path d="m-31.5-30-20 588.214-7.6249 113.211c-1.5556 23.097 16.7602 42.688 39.9096 42.688h106.424c4.9338 0 9.825-.913 14.4263-2.693l190.467-73.652c4.602-1.779 9.493-2.692 14.427-2.692h301.166c8.394 0 16.576 2.641 23.386 7.549l90.861 65.479c5.47 3.942 11.847 6.437 18.539 7.254l480.509 58.659c25.24 3.082 46.92-17.868 44.69-43.202L1201-6.33117-31.5-30Z" opacity=".3"/></g><defs><clipPath id="a"><path fill="#fff" d="M-62 123h1332v657H-62z"/></clipPath></defs></svg>