<svg xmlns="http://www.w3.org/2000/svg" width="34" height="28" fill="none"><path fill="#216E7A" d="M31.375 2.12502h-2.5c-1.0338 0-1.875.83937-1.875 1.87312v1.25188h-6.7444L9.26688.464395C8.04813-.065605 6.57937.43127 5.9975 1.57564c-.28375.5575-.32562 1.18563-.11688 1.77188.21938.615.6825 1.10563 1.30438 1.37875l1.18875.52375H3.25c-1.37875 0-2.5 1.12125-2.5 2.5S1.87125 10.25 3.25 10.25h10.1112C11.0719 12.125 9.5 14.2281 9.5 17.1244c0 1.5612.44562 3.0712 1.2856 4.3806-.0225.2031-.0356.4094-.0356.6188 0 3.1018 2.5231 5.625 5.625 5.625 2.3038 0 4.3512-1.38 5.2163-3.5157l-.0251-.01c2.4919-1.39 4.1838-4.05 4.1838-7.1V15.875h1.3656c.2588.625.9463 1.25 1.7594 1.25h2.5c1.0338 0 1.875-.8425 1.875-1.8769V3.99814c0-1.03375-.8412-1.87312-1.875-1.87312ZM7.68875 3.58252c-.30375-.13375-.52812-.36688-.63062-.65438-.09188-.25875-.07313-.53812.0525-.785C7.4 1.57689 8.1425 1.3394 8.7675 1.61127l8.3563 3.63875h-5.6469l-3.78815-1.6675ZM2 7.75002c0-.68937.56062-1.25 1.25-1.25h.3475c-.215.625-.3475.7925-.3475 1.25s.1325 1.25.3475 1.25H3.25c-.68938 0-1.25-.56063-1.25-1.25ZM16.375 26.4981c-2.4119 0-4.375-1.9631-4.375-4.375 0-2.4118 1.9631-4.375 4.375-4.375 1.3288 0 2.5769.6144 3.4006 1.6319-.5612.535-1.3162.8681-2.1506.8681-1.3787 0-2.5 1.1213-2.5 2.5 0 1.3788 1.1213 2.5 2.5 2.5.715 0 1.405-.1018 2.0662-.2762-.8156.9519-2.0106 1.5262-3.3162 1.5262Zm4.1331-8.1731c-1.055-1.1431-2.5475-1.8269-4.1331-1.8269-.6462 0-1.265.115-1.8438.3169.1575-1.5769 1.4763-2.8169 3.0938-2.8169 1.7231 0 3.125 1.4019 3.125 3.125 0 .4263-.0869.8319-.2419 1.2019Zm3.9919-3.7v2.4981c0 3.7907-3.0844 6.875-6.875 6.875-.6894 0-1.25-.5606-1.25-1.25 0-.6893.5606-1.25 1.25-1.25 2.4119 0 4.375-1.9631 4.375-4.375 0-2.4118-1.9631-4.375-4.375-4.375s-4.375 1.9632-4.375 4.375c0 .1257-.0219.2488-.0588.3675-.8243.5682-1.4862 1.3525-1.9131 2.2682-.345-.8307-.5281-1.7225-.5281-2.6357 0-3.7906 3.125-6.875 6.875-6.875V9.00002H5.75c-.68937 0-1.25-.56063-1.25-1.25s.56063-1.25 1.25-1.25H27V14.625h-2.5Zm7.5.6231c0 .345-.28.6269-.625.6269h-.625v-3.75H29.5v3.75h-.625c-.345 0-.625-.2819-.625-.6269V3.99814c0-.34437.28-.62312.625-.62312h2.5c.345 0 .625.27875.625.62312V15.2481Z"/></svg>