<svg xmlns="http://www.w3.org/2000/svg" width="40" height="40" fill="none"><g fill="#216E7A" clip-path="url(#a)"><path d="M5 18.125h3.75V30H5V18.125Z" opacity=".8"/><path d="M35.2669 23.0094c-.5857-.4332-1.3675-.5594-2.1469-.3438l-9.5556 2.6419c.1175-.29.1856-.6056.1856-.9381 0-1.3756-1.1213-2.4944-2.5-2.4944h-5.8606c-.4163-.625-1.4763-2.5-2.8894-2.5H10v-.625c0-1.0338-.84125-1.875-1.875-1.875h-2.5c-1.03375 0-1.875.8412-1.875 1.875v10.625c0 1.0337.84125 1.875 1.875 1.875h2.5c1.03375 0 1.875-.8406 1.875-1.875v-.47l7.5869 5.1262c.9525.6451 2.0612.9688 3.1719.9688 1.0262 0 2.0543-.2763 2.9637-.8319L35.0806 27.23c.7213-.4394 1.1694-1.2381 1.1694-2.0831v-.1956c0-.7694-.3581-1.4769-.9831-1.9419ZM8.75 29.375c0 .345-.28062.625-.625.625H7.5v-2.5H6.25V30h-.625C5.28062 30 5 29.72 5 29.375V18.75c0-.345.28062-.625.625-.625h2.5c.34438 0 .625.2806.625.625v10.625ZM35 25.1469c0 .4125-.2187.8018-.5706 1.0168l-11.3581 6.9376c-1.4782.9018-3.3557.8612-4.7838-.1057L10 27.3969V20.625h2.5c.6619 0 1.5431 1.2713 1.93 2.1306l.1663.3694H21.25c.6894 0 1.25.5581 1.25 1.2438 0 .6925-.5606 1.2562-1.25 1.2562H15v1.25h7.5l10.9525-3.0044c.4006-.1112.8-.0581 1.0688.1432.3043.2256.4787.5675.4787.9375v.1956Z"/><path d="M24.0621 10.7708c-.479 0-.9385.1903-1.2772.529-.3387.3387-.529.7982-.529 1.2772 0 .4791.1903.9385.529 1.2773.3387.3387.7982.529 1.2772.529.4791 0 .9385-.1903 1.2773-.529.3387-.3388.529-.7982.529-1.2773 0-.479-.1903-.9385-.529-1.2772-.3388-.3387-.7982-.529-1.2773-.529Z" opacity=".8"/><path d="M30.7458 6.6014c-.9944-.81697-2.2941-1.07423-3.8713-.76313-.9806.21463-1.6585.52537-2.1318.86358l-.3194-.17489V5.35192c0-.09033.0108-.20848.0635-.26088.1081-.10731.4907-.1037.8264-.10153l1.6393.00145c1.3941 0 2.5293-1.13457 2.5293-2.52858V.654297h-3.2523c-.9203 0-1.7253.496103-2.1676 1.233213-.4422-.73711-1.2473-1.233213-2.1676-1.233213H18.642V2.46238c0 1.39401 1.1353 2.52858 2.5293 2.52858l1.639-.00109c.3375-.00253.7183-.00578.8267.10154.0524.05239.0636.17054.0636.26088v1.17503l-.3415.18898c-.4733-.3364-1.1483-.64425-2.117-.85671-1.57-.30894-2.8722-.05239-3.8673.76493-1.9595 1.61116-1.9822 4.79848-1.9822 4.93318 0 2.8285 1.8832 5.7491 4.3804 6.7937.5922.2475 1.1772.3704 1.7412.3704.9239 0 1.7929-.3288 2.5481-.9756 1.2151 1.0395 2.7237 1.2563 4.2843.6038 2.5-1.0457 4.3854-3.9699 4.3854-6.802-.0004-.1352-.0228-3.33255-1.9862-4.9466Zm-4.5163-5.22445h2.5297v1.08543c0 .99582-.8108 1.80628-1.8067 1.80628l-1.6332-.00108c-.3212-.00109-.7154-.00289-.896.06793v-.06685c0-.59763.4859-1.08507 1.0836-1.08507h1.0843v-.72265h-1.0843c-.3874 0-.7447.12502-1.0392.3335.1789-.80901.8997-1.41749 1.7618-1.41749Zm-3.2498 2.88991c-.0574 0-.1159.00036-.1745.00072l-1.6339.00072c-.9958 0-1.8066-.81046-1.8066-1.80628V1.37695h2.5296c.8621 0 1.583.60848 1.7615 1.41749-.2941-.20848-.6515-.3335-1.0388-.3335h-1.0844v.72265h1.0844c.5976 0 1.0836.48744 1.0836 1.08471v.06576c-.3613-.05853-.4636-.0672-.7209-.0672Zm5.0879 13.41644c-1.3853.5796-2.7179.3353-3.752-.685l-.2537-.2501-.2536.2501c-1.0363 1.0222-2.37 1.2664-3.7571.6865-2.2074-.9232-3.9367-3.6148-3.9367-6.1274 0-.0297.0199-2.97845 1.7188-4.37499.589-.48418 1.3229-.72699 2.1875-.72699.3382 0 .6963.03722 1.0739.11165 2.1654.47442 2.6059 1.42255 2.6059 1.83049v.20596h.7227V8.3495c0-.48562.5087-1.34595 2.5986-1.80375 1.3474-.26666 2.4444-.05962 3.2632.61245 1.6997 1.39437 1.7242 4.3605 1.7242 4.3901 0 2.516-1.7314 5.2108-3.9417 6.135Z"/></g><defs><clipPath id="a"><path fill="#fff" d="M0 0h40v40H0z"/></clipPath></defs></svg>