<svg xmlns="http://www.w3.org/2000/svg" width="24" height="24" fill="none"><path fill="#fff" d="M12 2C9.24746 2 7 4.24746 7 7s2.24746 5 5 5c2.7525 0 5-2.24746 5-5s-2.2475-5-5-5Zm0 1.5c1.9419 0 3.5 1.55812 3.5 3.5s-1.5581 3.5-3.5 3.5S8.5 8.94188 8.5 7s1.5581-3.5 3.5-3.5ZM5.98926 14C4.89935 14 4 14.8994 4 15.9893v.7607c0 1.8021 1.13963 3.1961 2.65332 4.0312C8.16701 21.6164 10.0841 22 12 22c1.9159 0 3.833-.3836 5.3467-1.2188 1.2906-.712 2.262-1.8499 2.5342-3.2812h.1201v-1.5107c0-1.0899-.9004-1.9893-1.9903-1.9893H5.98926Zm0 1.5H18.0107c.2791 0 .4903.2102.4903.4893V16H18.5v.75c0 1.1979-.6729 2.0539-1.8779 2.7188C15.417 20.1336 13.7091 20.5 12 20.5c-1.7091 0-3.41701-.3664-4.62207-1.0312C6.17287 18.8039 5.5 17.9479 5.5 16.75v-.7607c0-.2791.21016-.4893.48926-.4893Z"/><path fill="#fff" d="M12 2C9.24746 2 7 4.24746 7 7s2.24746 5 5 5c2.7525 0 5-2.24746 5-5s-2.2475-5-5-5ZM5.98926 14C4.89935 14 4 14.8994 4 15.9893v.7607c0 1.8021 1.13963 3.1961 2.65332 4.0312C8.16701 21.6164 10.0841 22 12 22c1.9159 0 3.833-.3836 5.3467-1.2188 1.2906-.712 2.262-1.8499 2.5342-3.2812h.1201v-1.5107c0-1.0899-.9004-1.9893-1.9903-1.9893H5.98926Z"/></svg>