<svg xmlns="http://www.w3.org/2000/svg" width="16" height="16" fill="none"><path stroke="#19707D" stroke-linecap="round" stroke-linejoin="round" d="M14.2608 8.48609 8.01083 14.6761l-6.25-6.19001c-.41224-.40115-.73696-.88332-.95371-1.41614C.590375 6.53714.486298 5.96522.501445 5.3902c.015146-.57501.149188-1.14066.393683-1.66133.244492-.52066.594152-.98507 1.026942-1.36396.43279-.3789.93935-.66408 1.48777-.83758.54842-.17351 1.12683-.23159 1.6988-.17057.57197.06101 1.12511.2398 1.62459.52509.49948.28529.93447.67091 1.2776 1.13257.34461-.45831.78011-.84056 1.27925-1.12282.49914-.28227 1.05112-.45847 1.62152-.51758.5704-.0591 1.1468.00015 1.6932.17406.5464.17392 1.0511.45874 1.4823.83665.4313.37791.7799.84077 1.0241 1.35961.2441.51884.3786 1.08249.3949 1.65567.0163.57319-.0859 1.14358-.3002 1.67546-.2142.53188-.536 1.01381-.9451 1.41562"/></svg>