<svg xmlns="http://www.w3.org/2000/svg" width="50" height="38" fill="none"><path fill="#C5E1E6" fill-rule="evenodd" d="M13.459 26.5341v-4.0303h7.1002c.1481 0 .2933.0101.4386.0202.0169.0011.0338.0023.0508.0035l-1.0262 1.9915h-4.5348v2.0151c0 2.7779 2.2752 5.0379 5.0716 5.0379h5.0717v-2.0151c0-2.2026-1.4393-4.0586-3.4254-4.7407l-1.1213-2.2868c3.6699.2691 6.5753 3.3156 6.5753 7.0275v2.0151c0 1.1114-.9098 2.0152-2.0286 2.0152h-5.0717c-3.9142 0-7.1002-3.1648-7.1002-7.0531Zm24.8331-4.0047c.003-.005.0178-.0256.0178-.0256l.0178.0237c.017-.0012.0339-.0024.0508-.0035.1453-.0101.2905-.0202.4386-.0202h7.1002v4.0303c0 3.8883-3.186 7.0531-7.1002 7.0531h-5.0717c-1.1188 0-2.0286-.9038-2.0286-2.0152v-2.0151c0-3.7119 2.9054-6.7584 6.5753-7.0275Zm5.5966 1.9896h-4.5348c.2658.7204.4775 1.5869.4775 2.5189 0 2.5039-1.5215 4.5341-1.5215 4.5341s-1.5215-2.0302-1.5215-4.5341c0-.8121.1663-1.5628.3824-2.2217-1.9861.6821-3.4254 2.5381-3.4254 4.7407v2.0151h5.0717c2.7964 0 5.0716-2.26 5.0716-5.0379V24.519Z" clip-rule="evenodd"/><path fill="#C5E1E6" d="M21.0842 22.5294c-.003-.005-.0178-.0256-.0178-.0256l-.0178.0237-1.0262 1.9915c-.2658.7204-.4775 1.5869-.4775 2.5189 0 2.5039 1.5215 4.5341 1.5215 4.5341s1.5215-2.0302 1.5215-4.5341c0-.8121-.1663-1.5628-.3824-2.2217l-1.1213-2.2868Z"/><path fill="#0D444D" d="M4.68667 15.1583c-1.235 0-2.19028-.3166-2.86584-.95-.67555-.6439-1.039719-1.52-1.092497-2.6283L.7125 10.8833l.015833-.6966c.052778-1.09781.422227-1.96864 1.108337-2.61253.68611-.64389 1.63611-.96584 2.85-.96584 1.21389 0 2.16389.32195 2.85.96584.68611.64389 1.05555 1.51472 1.10833 2.61253.01056.1266.01583.3589.01583.6966 0 .3378-.00527.57-.01583.6967-.05278 1.1083-.41694 1.9844-1.0925 2.6283-.67556.6334-1.63083.95-2.86583.95Zm0-1.5675c.55944 0 .99222-.1741 1.29833-.5225.30611-.3589.475-.8814.50667-1.5675.01055-.1055.01583-.3114.01583-.6175 0-.3061-.00528-.5119-.01583-.6175C6.46 9.57972 6.29111 9.0625 5.985 8.71417c-.30611-.35889-.73889-.53834-1.29833-.53834-.55945 0-.99223.17945-1.29834.53834-.30611.34833-.475.86555-.50666 1.55163l-.01584.6175.01584.6175c.03166.6861.20055 1.2086.50666 1.5675.30611.3484.73889.5225 1.29834.5225ZM10.7951 15c-.1055 0-.1953-.0369-.2691-.1108-.0739-.0739-.1109-.1636-.1109-.2692V7.14667c0-.10556.037-.19528.1109-.26917.0738-.07389.1636-.11083.2691-.11083h1.2984c.1055 0 .1952.03694.2691.11083s.1109.16361.1109.26917v.64916c.6227-.79166 1.5041-1.1875 2.6441-1.1875.9711 0 1.7417.32195 2.3117.96584.57.63333.855 1.49889.855 2.59663V14.62c0 .1056-.037.1953-.1108.2692-.0634.0739-.1531.1108-.2692.1108H16.511c-.1056 0-.1953-.0369-.2692-.1108s-.1108-.1636-.1108-.2692v-4.3542c0-.62274-.1531-1.10302-.4592-1.4408-.2956-.34833-.7283-.5225-1.2983-.5225-.5595 0-1.0028.17417-1.33.5225-.3167.34833-.475.82861-.475 1.4408V14.62c0 .1056-.037.1953-.1109.2692-.0633.0739-.153.1108-.2691.1108h-1.3934Zm9.8962 0c-.1055 0-.1953-.0369-.2691-.1108-.0739-.0739-.1109-.1636-.1109-.2692V4.13833c0-.11611.037-.20583.1109-.26916.0738-.07389.1636-.11084.2691-.11084h1.3142c.1161 0 .2058.03695.2692.11084.0738.06333.1108.15305.1108.26916V14.62c0 .1056-.037.1953-.1108.2692-.0634.0739-.1531.1108-.2692.1108h-1.3142Zm4.1111-9.595c-.1055 0-.1953-.03694-.2691-.11083-.0739-.07389-.1109-.16361-.1109-.26917v-1.14c0-.10556.037-.19528.1109-.26917.0738-.07389.1636-.11083.2691-.11083h1.4409c.1055 0 .1952.03694.2691.11083.0845.07389.1267.16361.1267.26917v1.14c0 .10556-.037.19528-.1108.26917-.0739.07389-.1689.11083-.285.11083h-1.4409ZM24.8658 15c-.1056 0-.1953-.0369-.2692-.1108s-.1108-.1636-.1108-.2692V7.14667c0-.10556.0369-.19528.1108-.26917.0739-.07389.1636-.11083.2692-.11083h1.3141c.1161 0 .2059.03694.2692.11083.0739.06333.1108.15306.1108.26917V14.62c0 .1056-.0369.1953-.1108.2692-.0633.0739-.1531.1108-.2692.1108h-1.3141Zm4.1748 0c-.1056 0-.1953-.0369-.2692-.1108s-.1108-.1636-.1108-.2692V7.14667c0-.10556.0369-.19528.1108-.26917.0739-.07389.1636-.11083.2692-.11083h1.2983c.1055 0 .1953.03694.2692.11083.0738.07389.1108.16361.1108.26917v.64916c.6228-.79166 1.5042-1.1875 2.6442-1.1875.9711 0 1.7416.32195 2.3116.96584.57.63333.855 1.49889.855 2.59663V14.62c0 .1056-.0369.1953-.1108.2692-.0633.0739-.1531.1108-.2692.1108h-1.3933c-.1056 0-.1953-.0369-.2692-.1108s-.1108-.1636-.1108-.2692v-4.3542c0-.62274-.1531-1.10302-.4592-1.4408-.2955-.34833-.7283-.5225-1.2983-.5225-.5595 0-1.0028.17417-1.33.5225-.3167.34833-.475.82861-.475 1.4408V14.62c0 .1056-.037.1953-.1108.2692-.0634.0739-.1531.1108-.2692.1108h-1.3933Zm13.047.1583c-1.1717 0-2.1058-.3377-2.8025-1.0133-.6861-.6861-1.0503-1.6467-1.0925-2.8817l-.0158-.3958.0158-.3958c.0528-1.20337.4222-2.14809 1.1083-2.8342.6967-.68611 1.6256-1.02917 2.7867-1.02917 1.2456 0 2.2061.38 2.8817 1.14.6861.76 1.0291 1.77334 1.0291 3.03997v.3325c0 .1056-.0369.1953-.1108.2692s-.1689.1108-.285.1108h-5.2567v.1267c.0211.5806.1795 1.0714.475 1.4725.3061.3906.7231.5858 1.2509.5858.6227 0 1.1241-.2427 1.5041-.7283.095-.1161.1689-.19.2217-.2217.0633-.0316.1531-.0475.2692-.0475h1.3616c.095 0 .1742.0317.2375.095.0739.0528.1109.1214.1109.2059 0 .2533-.1531.5541-.4592.9025-.2956.3377-.7231.6333-1.2825.8866-.5594.2534-1.2086.38-1.9475.38Zm1.7575-4.9875v-.0475c0-.62274-.1583-1.12413-.475-1.50413-.3061-.38-.7336-.57-1.2825-.57-.5489 0-.9764.19-1.2825.57-.3061.38-.4592.88139-.4592 1.50413v.0475h3.4992ZM.9975 34c-.116111 0-.211111-.0369-.285-.1108-.063333-.0739-.095-.1689-.095-.285v-1.1084c0-.1794.036944-.3166.110833-.4116.073889-.1056.116111-.1636.126667-.1742l5.51-7.125H1.15583c-.10555 0-.195274-.0369-.269163-.1108-.073889-.0739-.110834-.1636-.110834-.2692v-1.0925c0-.1161.031667-.2111.095-.285.073889-.0739.168887-.1108.284997-.1108h7.56834c.11611 0 .21111.0369.285.1108.07389.0739.11083.1689.11083.285v1.0925c0 .19-.06861.3747-.20583.5542L3.515 32.1158h5.38333c.11611 0 .21111.037.285.1109.07389.0739.11084.1689.11084.285V33.62c0 .1161-.03695.2111-.11084.285-.07389.0633-.16889.095-.285.095H.9975Z"/></svg>