<svg xmlns="http://www.w3.org/2000/svg" width="640" height="515" fill="none"><path fill="#2A8086" d="M31.332 129.324-89.322 246.223C-97.4256 254.075-102 264.876-102 276.159v123.626c0 23.021 18.662 41.683 41.6826 41.683H914.243c4.727 0 9.42.804 13.877 2.377l134.58 47.515c4.46 1.574 9.15 2.378 13.88 2.378h194.16c4.3 0 8.58-.666 12.68-1.974l252.57-80.626c4.09-1.308 8.37-1.974 12.67-1.974h369.66c14.41 0 27.79-7.441 35.4-19.677l36.72-59.063c4.1-6.606 6.28-14.228 6.28-22.006V174.094c0-23.02-18.66-41.682-41.68-41.682h-14.7c-8.93 0-17.63-2.868-24.8-8.182L1775.05 20.2204c-7.82-5.7893-17.42-8.6608-27.13-8.1169l-189.41 10.6056c-10.5.5881-20.4 5.1263-27.69 12.704L1411.61 159.202c-7.86 8.159-18.7 12.769-30.03 12.769h-91.15c-8.59 0-16.97-2.652-23.99-7.592l-97.9-68.8792c-7.02-4.9406-15.4-7.5921-23.98-7.5921H933.553c-7.946 0-15.727 2.2712-22.425 6.5459L780.833 177.609c-14.139 9.023-32.308 8.693-46.11-.837l-75.031-51.812c-6.963-4.808-15.224-7.383-23.685-7.383H60.3366c-10.8268 0-21.2288 4.213-29.0046 11.747Z"/><path fill="#2A808D" fill-opacity=".3" d="m31.332 150.585-120.654 116.9C-97.4256 275.336-102 286.138-102 297.421v123.626c0 23.021 18.662 41.683 41.6826 41.683H914.243c4.727 0 9.42.804 13.877 2.377l134.58 47.515c4.46 1.574 9.15 2.378 13.88 2.378h194.16c4.3 0 8.58-.666 12.68-1.974l252.57-80.626c4.09-1.309 8.37-1.974 12.67-1.974H1919.94c14.66 0 28.24-7.703 35.77-20.286l35.1-58.678c3.87-6.467 5.91-13.862 5.91-21.398V195.356c0-23.02-18.66-41.682-41.68-41.682h-14.7c-8.93 0-17.63-2.868-24.8-8.182L1775.05 41.4824c-7.82-5.7894-17.42-8.6608-27.13-8.1169l-189.41 10.6056c-10.5.5881-20.4 5.1262-27.69 12.704L1411.61 180.464c-7.86 8.159-18.7 12.769-30.03 12.769h-91.15c-8.59 0-16.97-2.652-23.99-7.592l-97.9-68.879c-7.02-4.941-15.4-7.592-23.98-7.592H936.291c-9.638 0-18.979 3.34-26.432 9.452L764.078 238.175c-7.452 6.111-16.793 9.452-26.431 9.452H550.83c-9 0-17.758-2.913-24.965-8.303l-123.253-92.182c-7.207-5.39-15.965-8.303-24.965-8.303H60.3366c-10.8268 0-21.2288 4.213-29.0046 11.746Z"/><path fill="#2A808D" fill-opacity=".3" d="M31.5685 109.399-88.1937 217.13C-96.9816 225.035-102 236.299-102 248.12v109.613c0 23.021 18.662 41.683 41.6826 41.683H4.08192c5.41786 0 10.78378-1.057 15.79748-3.11l197.8036-81.009c5.014-2.054 10.379-3.11 15.797-3.11h312.774c9.139 0 18.025 3.004 25.289 8.548l91.887 70.132c7.265 5.545 16.15 8.549 25.289 8.549h221.3c7.442 0 14.747 1.992 21.159 5.769l128.472 75.69c6.41 3.777 13.71 5.769 21.15 5.769h188.15c5.47 0 10.88-1.075 15.93-3.165l114.43-47.335 137.75-35.415c3.39-.872 6.88-1.313 10.38-1.313h202.57c8.43 0 16.66-2.557 23.61-7.333l142.3-97.814c6.95-4.776 15.18-7.332 23.61-7.332h15.51c23.02 0 41.68-18.662 41.68-41.683v-91.092c0-23.021-18.66-41.683-41.68-41.683h-15.51c-8.43 0-16.66-2.556-23.61-7.332L1774.6 8.01018c-7.55-5.19472-16.61-7.752144-25.77-7.276047L1557.72 10.6689c-10.03.5214-19.53 4.6473-26.76 11.6186L1411.42 137.532c-7.77 7.49-18.14 11.675-28.93 11.675h-92.85c-8.1 0-16.02-2.358-22.8-6.785l-98.7-64.4763c-6.78-4.4276-14.7-6.7854-22.8-6.7854H932.577c-7.331 0-14.533 1.9335-20.878 5.6056L770.835 158.285c-13.944 8.07-31.29 7.381-44.55-1.768l-73.097-50.437c-6.961-4.802-15.217-7.3738-23.673-7.3738H59.4448c-10.2937 0-20.2233 3.8088-27.8763 10.6928Z"/></svg>