<svg xmlns="http://www.w3.org/2000/svg" width="1200" height="564" fill="none"><path fill="#2A808D" fill-opacity=".3" d="m1684.17 238.598 126.73 46.98c15.69 5.815 26.1 20.777 26.1 37.506V432.32c0 22.091-17.91 40-40 40h-181.05c-6.56 0-13.02 1.613-18.81 4.698l-98.13 52.284c-5.79 3.085-12.25 4.698-18.81 4.698h-294.13c-8.91 0-17.56-2.975-24.59-8.453l-57.44-44.774c-7.02-5.478-15.68-8.453-24.59-8.453H865.074c-5.409 0-10.762 1.097-15.735 3.225l-126.72 54.221c-4.973 2.128-10.326 3.225-15.736 3.225H531.107c-9.693 0-19.055-3.519-26.348-9.903l-46.68-40.865c-7.293-6.384-16.655-9.903-26.347-9.903H64.1929c-8.6385 0-17.0448-2.797-23.9617-7.971L-95.1792 363.044c-6.9168-5.175-15.3228-7.972-23.9618-7.972H-133c-22.091 0-40-17.908-40-40V179.797c0-4.356.712-8.683 2.107-12.809l43.954-130.0251c5.121-15.1463 18.768-25.7887 34.7058-27.06295L31.5928 0H466.567c20.503 0 37.687 15.5031 39.789 35.8983l6.015 58.3521c2.103 20.3956 19.286 35.8986 39.789 35.8986h152.052c7.117 0 14.106-1.899 20.244-5.501l146.806-86.1469C877.4 34.899 884.389 33 891.506 33H1239l318.32 32.8027c12.97 1.337 24.48 8.9154 30.83 20.3065l74.99 134.4658c4.64 8.321 12.1 14.712 21.03 18.023Z"/><path fill="#2A8086" d="m1661.2 271.209 126.58 46.435c15.75 5.779 26.22 20.774 26.22 37.553V462.84c0 22.091-17.91 40-40 40h-181.6c-6.5 0-12.91 1.584-18.66 4.617l-98.48 51.926c-5.75 3.032-12.16 4.617-18.66 4.617h-294.96c-8.84 0-17.44-2.929-24.44-8.329l-57.68-44.502c-7-5.4-15.59-8.329-24.44-8.329H840.046c-5.359 0-10.663 1.076-15.597 3.166l-127.123 53.828c-4.934 2.089-10.238 3.166-15.597 3.166H505.36c-9.621 0-18.92-3.468-26.191-9.767l-46.895-40.626c-7.271-6.3-16.57-9.767-26.191-9.767H37.5273c-8.5699 0-16.9133-2.753-23.8011-7.852L-122.095 394.432c-6.888-5.099-15.231-7.852-23.801-7.852H-160c-22.091 0-40-17.908-40-40V246.26c0-22.092 17.909-40 40-40h8.1c12.137 0 23.617-5.511 31.209-14.98L-7.0094 49.4798C.582275 40.0104 12.0626 34.5 24.1995 34.5H440.95c20.487 0 37.662 15.479 39.785 35.8557l5.973 57.3403c2.123 20.377 19.298 35.856 39.785 35.856h192.872c6.969 0 13.817-1.821 19.865-5.281l148.54-84.9897C893.818 69.8206 900.666 68 907.635 68H1114l408.33 9.9362c14.33.3487 27.38 8.3395 34.2 20.9459l83.27 153.8169c4.64 8.571 12.25 15.153 21.4 18.51Z"/><circle cx="5.20395" cy="375.733" r="51.2039" fill="#216E7A"/><circle cx="5.20395" cy="340.204" r="51.2039" fill="#216E7A"/><rect width="11.9079" height="92.8816" x="-3.13184" y="377.118" fill="#1D6874" rx="5.95395"/></svg>