<svg xmlns="http://www.w3.org/2000/svg" width="320" height="905" fill="none"><path fill="#2A8086" d="M164.889 21H-15.3174C-38.3381 21-57 39.662-57 62.6826V788.631c0 17.054 10.389 32.388 26.2276 38.711l114.4352 45.687c4.9163 1.963 10.1614 2.971 15.455 2.971H285.149c8.974 0 17.709-2.896 24.905-8.258l231.585-172.56c13.533-10.084 19.65-27.332 15.494-43.689L429.075 147.51c-4.696-18.479-21.332-31.417-40.399-31.417h-75.147c-9.426 0-18.574-3.195-25.951-9.064L190.84 30.0641C183.464 24.1952 174.316 21 164.889 21Z"/><path fill="#2A8086" d="M168.505 299H-15.3174C-38.3381 299-57 317.662-57 340.683v490.884c0 18.65 12.3883 35.03 30.3335 40.108l112.2059 31.75C89.2319 904.47 93.0511 905 96.8886 905H288.64c6.785 0 13.467-1.656 19.466-4.824l223.92-118.258c18.345-9.689 26.773-31.394 19.771-50.924L430.992 394.015c-5.938-16.565-21.64-27.616-39.237-27.616h-81.842c-7.173 0-14.225-1.851-20.474-5.375l-100.46-56.649c-6.248-3.524-13.3-5.375-20.474-5.375Z" opacity=".3"/><path fill="#2A8086" d="M166.556.645752H-14.9326c-23.0207 0-41.6826 18.661948-41.6826 41.682548V584.718c0 17.671 11.1428 33.422 27.806 39.305l113.5127 40.075c4.4573 1.574 9.1497 2.378 13.8766 2.378H292.74c4.302 0 8.578-.666 12.676-1.974l220.188-70.289c21.479-6.857 33.612-29.55 27.386-51.22L429.98 114.881c-5.133-17.865-21.474-30.1721-40.062-30.1721h-77.492c-8.586 0-16.963-2.6514-23.985-7.592l-97.9-68.87905c-7.022-4.9406-15.399-7.592098-23.985-7.592098Z" opacity=".3"/></svg>