<svg xmlns="http://www.w3.org/2000/svg" width="1920" height="564" fill="none"><path fill="#2A8086" d="m1841.56 272.512 98.77 44.167c14.4 6.439 23.67 20.741 23.67 36.515V462.84c0 22.091-17.91 40-40 40h-181.6c-6.5 0-12.91 1.584-18.66 4.617l-98.48 51.926c-5.75 3.032-12.16 4.617-18.66 4.617h-294.96c-8.84 0-17.44-2.929-24.44-8.329l-57.68-44.502c-7-5.4-15.59-8.329-24.44-8.329H990.046c-5.359 0-10.663 1.076-15.597 3.166l-127.123 53.828c-4.934 2.089-10.238 3.166-15.597 3.166H655.36c-9.621 0-18.92-3.468-26.191-9.767l-46.895-40.626c-7.271-6.3-16.57-9.767-26.191-9.767H187.527c-8.57 0-16.913-2.753-23.801-7.852L27.905 394.432c-6.8878-5.099-15.2312-7.852-23.80112-7.852H-10c-22.0914 0-40-17.908-40-40V246.26c0-22.092 17.9086-40 40-40h8.1001c12.1368 0 23.6172-5.511 31.2089-14.98L142.991 49.4798C150.582 40.0104 162.063 34.5 174.199 34.5H590.95c20.487 0 37.662 15.479 39.785 35.8557l5.973 57.3403c2.123 20.377 19.298 35.856 39.785 35.856h338.887c7.59 0 15.02-2.16 21.43-6.228l172.1-109.2323c6.41-4.0682 13.84-6.2284 21.43-6.2284h477.4c16.19 0 30.79 9.7682 36.97 24.7406l76.21 184.6521c3.9 9.467 11.29 17.075 20.64 21.256Z"/><path fill="#2A808D" fill-opacity=".3" d="m1864.84 240.027 98.64 44.591c14.32 6.474 23.52 20.733 23.52 36.449V432.32c0 22.091-17.91 40-40 40h-181.05c-6.56 0-13.02 1.613-18.81 4.698l-98.13 52.284c-5.79 3.085-12.25 4.698-18.81 4.698h-294.13c-8.91 0-17.56-2.975-24.59-8.453l-57.44-44.774c-7.02-5.478-15.68-8.453-24.59-8.453h-214.38c-5.4 0-10.76 1.097-15.731 3.225l-126.72 54.221c-4.973 2.128-10.326 3.225-15.736 3.225H681.107c-9.693 0-19.055-3.519-26.348-9.903l-46.68-40.865c-7.293-6.384-16.655-9.903-26.347-9.903H214.193c-8.639 0-17.045-2.797-23.962-7.971L54.8208 363.044c-6.9169-5.175-15.3232-7.972-23.9617-7.972H17c-22.09143 0-40-17.908-40-40V213.219c0-22.091 17.90857-40 40-40h7.8409c12.2083 0 23.7482-5.575 31.3359-15.139L169.582 15.1391C177.17 5.5752 188.709 0 200.918 0h415.649c20.503 0 37.687 15.5031 39.789 35.8983l6.015 58.3521c2.103 20.3956 19.286 35.8986 39.789 35.8986h293.276c7.474 0 14.804-2.096 21.154-6.049l176.76-110.1154c6.35-3.9533 13.67-6.04884 21.15-6.04884H1731.17c16.24 0 30.86 9.81814 37.02 24.84714l76.11 185.9481c3.87 9.463 11.22 17.084 20.54 21.296Z"/><path fill="#216E7A" d="M1787.72 232.471h-8.29l3.56 34.732.78 27.629h9.48l-3.95-27.629-1.58-34.732ZM1792.1 299.568h-6.66c-.47 0-.83.404-.79.87l3.47 33.863.76 26.861c.02.427.37.767.79.767h7.8c.48 0 .85-.426.78-.901l-3.82-26.727-1.54-33.98c-.02-.421-.37-.753-.79-.753ZM1808.23 323.249h-7.6c-.46 0-.83.399-.78.861l1.63 17.968v16.21c0 .469.41.835.88.785l8.09-.865c.45-.048.77-.464.7-.911l-2.5-15.426c-.01-.048-.01-.095-.01-.143l.38-17.673c.01-.442-.35-.806-.79-.806ZM1797.23 366.665h-6.66c-.47 0-.83.404-.79.87l3.46 33.797c.01.044.01.088 0 .131l-.73 11.33c-.03.455.33.84.79.84h7.67c.5 0 .87-.452.78-.939l-2.18-11.24c0-.037-.01-.076-.01-.114l-1.54-33.921c-.02-.422-.37-.754-.79-.754ZM1774.85 381.18c4.6-2.739 11.18-11.915 11.66-18.858.03-.435-.32-.707-.68-.468-2.87 1.879-11.72 11.653-11.96 18.748-.01.53.53.849.98.578ZM1771.79 354.966c1.69 4.898 8.23 5.71 12.78 5.51.29-.013.58-.199.56-.493-.11-2.313-7.67-5.511-12.63-5.907-.5-.04-.87.419-.71.89ZM1797.43 313.378c5.73-1.23 15.47-8.305 17.76-14.956.15-.412-.12-.782-.54-.673-3.52.908-15.98 7.932-17.99 14.809-.14.491.27.928.77.82ZM1876.49 334.537c-3.46 4.731-13.88 10.745-20.89 10.138-.43-.038-.66-.43-.39-.772 2.26-2.846 13.75-11.371 20.84-10.406.51.068.74.628.44 1.04ZM1886.46 252.145c-6.16 5.538-22.74 10.603-31.7 7.145-.41-.156-.55-.606-.22-.892 3.51-3.045 22.87-11.569 31.76-7.388.46.213.54.8.16 1.135ZM1860.93 234.262c.4 6.479-4.2 18.83-10.46 22.815-.37.234-.8.069-.81-.366-.11-3.896 3.68-19.328 10.29-22.998.43-.243.94.05.98.549ZM1872.62 277.392c-2.96-6.248-12.72-15.071-19.38-15.117-.44-.003-.72.377-.52.765 1.84 3.611 12.64 15.809 19.38 15.305.47-.035.72-.526.52-.953ZM1825.42 231.367l-8.27-.475 1.55 34.879-.79 27.628 9.45.544-2.35-27.81.41-34.766ZM1849.65 209.339l-8.18-1.339-2.11 34.85-3.68 27.393 9.34 1.531.57-27.903 4.06-34.532ZM1859.07 282.619l-10.69-1.996-2.88 34.82-4.91 27.207 12.21 2.282.84-27.968 5.43-34.345ZM1825.95 298.605l-6.65-.382c-.47-.027-.86.356-.84.823l1.52 34.006-.78 26.862c-.01.427.32.786.75.81l7.78.447c.48.028.87-.376.83-.854l-2.28-26.903.41-34.011c0-.422-.32-.774-.74-.798ZM1843.12 276.262l-6.57-1.076c-.46-.076-.89.264-.91.731l-2.06 33.978-3.58 26.632c-.06.424.23.816.65.885l7.7 1.259c.47.078.9-.282.91-.763l.55-26.993 3.97-33.782c.05-.419-.24-.803-.66-.871ZM1850.54 349.332l-9.07-1.695c-.47-.088-.92.256-.96.73l-2.8 33.924-4.86 28.675c-.07.443.24.848.69.889l10.17.912c.46.042.86-.313.88-.769l1.26-28.185 5.31-33.612c.06-.411-.21-.793-.62-.869ZM1827.23 365.887l-6.66-.383c-.47-.027-.85.355-.83.822l1.13 26.331v.114l-1.89 18.495c-.04.435.28.823.71.866l10.11.99c.51.049.93-.385.86-.888l-2.61-20.052-.07-25.51c-.01-.417-.33-.762-.75-.785ZM1805.35 276.094c-2.08 6.184 4.38 12.989 9.37 16.926.23.178.55.23.74.014 1.86-2.115-3.94-12.374-8.97-17.201-.37-.358-.97-.229-1.14.261ZM1867.13 365.119c-5.98-.417-9.9-8.51-11.79-14.311-.09-.271-.03-.595.24-.685 2.45-.82 9.54 7.871 12.21 14.025.21.481-.13 1.008-.66.971ZM1810.09 362.291h-7.6c-.46 0-.82.399-.78.861l1.63 17.967v31.241c0 .469.41.835.88.785l8.15-.871c.43-.046.74-.424.71-.852l-2.58-30.581.38-17.744c.01-.442-.35-.806-.79-.806Z"/><circle cx="81.0658" cy="234.214" r="65.0658" fill="#216E7A"/><circle cx="81.0658" cy="189.066" r="65.0658" fill="#216E7A"/><rect width="15.1316" height="118.026" x="70.4736" y="235.974" fill="#1D6874" rx="7.56579"/></svg>