<svg width="34" height="32" viewBox="0 0 34 32" fill="none" xmlns="http://www.w3.org/2000/svg">
<path d="M30.125 8.50003H27.3312C26.8794 6.61816 25.9181 4.88941 24.5163 3.48253C22.5031 1.47628 19.8644 0.375034 17.0781 0.375034C17.0256 0.375034 16.9731 0.374409 16.9219 0.375034C14.1356 0.375034 11.4963 1.47691 9.4825 3.48441C8.08125 4.89066 7.12063 6.61878 6.66937 8.50066H3.875C2.15188 8.50066 0.75 9.90253 0.75 11.6257V14.1257C0.75 15.8488 2.15188 17.2507 3.875 17.2507H5.41C4.05125 18.5357 3.25 20.3425 3.25 22.25V25.375C3.25 28.8213 6.05375 31.625 9.5 31.625H17H24.5C27.9463 31.625 30.75 28.8213 30.75 25.375V22.25C30.75 20.3425 29.9487 18.5357 28.5906 17.25H30.125C31.8481 17.25 33.25 15.8482 33.25 14.125V11.625C33.25 9.90191 31.8481 8.50003 30.125 8.50003ZM10.3663 4.36816C12.1431 2.59691 14.4681 1.62503 16.9219 1.62503C16.9463 1.62503 16.9713 1.62503 16.995 1.62503L17 1.00003L17.005 1.62503C19.51 1.60691 21.8394 2.58003 23.6325 4.36628C23.8719 4.60691 24.0969 4.85816 24.3069 5.11878C23.2688 4.48816 22.0513 4.12503 20.75 4.12503C19.1606 4.12503 17.7663 4.97691 17 6.24816C16.2338 4.97691 14.8394 4.12503 13.25 4.12503C11.9487 4.12503 10.7312 4.48816 9.69312 5.11878C9.9025 4.85816 10.1269 4.60753 10.3663 4.36816ZM3.875 16C2.84125 16 2 15.1588 2 14.125V11.625C2 10.5913 2.84125 9.75003 3.875 9.75003H6.375V16H3.875ZM29.5 22.25V25.375C29.5 28.1319 27.2569 30.375 24.5 30.375H17H9.5C6.74312 30.375 4.5 28.1319 4.5 25.375V22.25C4.5 20.2494 5.57812 18.3825 7.31312 17.3782L7.53437 17.25H7.625V11C7.625 7.89878 10.1488 5.37503 13.25 5.37503C14.9731 5.37503 16.375 6.77691 16.375 8.50003V9.12503H17.625V8.50003C17.625 6.77691 19.0269 5.37503 20.75 5.37503C23.8519 5.37503 26.375 7.89878 26.375 11V17.25H26.4656L26.6869 17.3782C28.4219 18.3825 29.5 20.2494 29.5 22.25ZM32 14.125C32 15.1588 31.1588 16 30.125 16H27.625V9.75003H30.125C31.1588 9.75003 32 10.5913 32 11.625V14.125ZM12.625 18.5C14.6931 18.5 16.375 16.8182 16.375 14.75C16.375 12.6819 14.6931 11 12.625 11C10.5569 11 8.875 12.6819 8.875 14.75C8.875 16.8182 10.5569 18.5 12.625 18.5ZM12.625 12.25C14.0037 12.25 15.125 13.3713 15.125 14.75C15.125 16.1288 14.0037 17.25 12.625 17.25C11.2463 17.25 10.125 16.1288 10.125 14.75C10.125 13.3713 11.2463 12.25 12.625 12.25ZM25.125 22.875H26.375V24.75C26.375 26.1288 25.2537 27.25 23.875 27.25H10.125C8.74625 27.25 7.625 26.1288 7.625 24.75V22.875H8.875V24.75C8.875 25.4394 9.43563 26 10.125 26H23.875C24.5644 26 25.125 25.4394 25.125 24.75V22.875ZM21.375 18.5C23.4431 18.5 25.125 16.8182 25.125 14.75C25.125 12.6819 23.4431 11 21.375 11C19.3069 11 17.625 12.6819 17.625 14.75C17.625 16.8182 19.3069 18.5 21.375 18.5ZM21.375 12.25C22.7537 12.25 23.875 13.3713 23.875 14.75C23.875 16.1288 22.7537 17.25 21.375 17.25C19.9963 17.25 18.875 16.1288 18.875 14.75C18.875 13.3713 19.9963 12.25 21.375 12.25Z" fill="#216E7A"/>
</svg>
